# xmcd
#
# Track frame offsets: 
#        150
#        12364
#        27174
#        40514
#        53929
#        66042
#        80255
#        93701
#        105234
#        118508
#        131576
#        144571
#        157073
#        169195
#        181755
#        194732
#        207225
#        222649
#        237948
#        250853
#
# Disc length: 3572 seconds
#
# Revision: 4
# Processed by: cddbd v1.5.2PL0 Copyright (c) Steve Scherf et al.
# Submitted via: ExactAudioCopyFreeDBPlugin 1.0
#
DISCID=190df214
DTITLE=Various Artist - Blues Selection - Vol. 06
DYEAR=2006
DGENRE=Blues
TTITLE0=Peter Chatman and His Washboard Band - Blues At Midnight (1940)
TTITLE1=T. Bone Walker - I Got A Break Baby (1942)
TTITLE2=Big Joe Williams - Meet Me Around The Corner (1941)
TTITLE3=Big Bill Broonzy - Plow Hand Blues (1940)
TTITLE4=John Lee 'Sonny Boy' Williamson - New Early In The Morning (19
TTITLE4=40)
TTITLE5=Memphis Slim - Grinder Man Blues (1940)
TTITLE6=Champion Jack Dupree - Cabbage Greens No. 1 (1940)
TTITLE7=Brownie McGhee - Million Lonesome Women (1941)
TTITLE8=Dr. Clayton - '41 Blues (1941)
TTITLE9=Big Joe Turner - Nobody In Mind (1941)
TTITLE10=Sonny Terry - Blowing The Blues (1940)
TTITLE11=Brother George and His Sanctified Singers - Precious Lord (1940
TTITLE11=)
TTITLE12=Brother George and His Sanctified Singers - Twelve Gates To The
TTITLE12=City (1940)
TTITLE13=Blind Boy Fuller - Somebody's Been Talkin' (1940)
TTITLE14=Huddie 'Leadbelly' Ledbetter - Good Morning Blues (1940)
TTITLE15=Memphis Minnie - Me And My Chauffeur Blues (1941)
TTITLE16=Hot Lips Page - Evil Man's Blues (1940)
TTITLE17=Muddy Waters - Country Blues (1941)
TTITLE18=Arthur 'Big Boy' Crudup - Give Me A 32-20 (1942)
TTITLE19=David Edwards - Army Blues (1942)
EXTD=
EXTT0=
EXTT1=
EXTT2=
EXTT3=
EXTT4=
EXTT5=
EXTT6=
EXTT7=
EXTT8=
EXTT9=
EXTT10=
EXTT11=
EXTT12=
EXTT13=
EXTT14=
EXTT15=
EXTT16=
EXTT17=
EXTT18=
EXTT19=
PLAYORDER=
